{"title":"Sinister.2011.DVDRip.XViD.SeT-  CM8","uid":6881376,"size":760861601,"categoryP":"video","categoryS":"movies","magnet":"?xt=urn:btih:4c5aac6d7d55fc4d52809354202ec0e2e203cfe6&amp;dn=Sinister.2011.DVDRip.XViD.SeT-++CM8&amp;tr=udp%3A%2F%2Ftracker.openbittorrent.com%3A80&amp;tr=udp%3A%2F%2Fopen.demonii.com%3A1337&amp;tr=udp%3A%2F%2Ftracker.coppersurfer.tk%3A6969&amp;tr=udp%3A%2F%2Fexodus.desync.com%3A6969","seeders":2,"leechers":1,"uploader":"LegendET","files":3,"time":1323675226,"description":"\n\n[center]\n\n\nSinister 2011 DVDRip XViD SeT-CM8\n\nA horrifying excursion into black magic and white-knuckled terror! A conjure man (Lucien Eisenach) has moved into town with a big bag of tricks and a short temper. \nUnwittingly, Emily (Donna Hamblin) crosses his path and provokes his wrath. As the nightmare of his curse progresses, Emily enlists the aid of her brother (Donny Versiga) to find \nout what's happening and try to reverse the hex before it's too late! \n &lt;a href=&quot;\nhttp://www.imdb.com/title/tt1841835/&quot; rel=&quot;nofollow&quot; target=&quot;_NEW&quot;&gt;\nhttp://www.imdb.com/title/tt1841835/&lt;/a&gt;\n\nCM8 Doing It Right The First Time \n\nSource:  Own\n\nGeneral\nComplete name                    : Sinister.2011.DVDRip.XViD.SeT-CM8.avi\nFormat                           : AVI\nFormat/Info                      : Audio Video Interleave\nFile size                        : 726 MiB\nDuration                         : 1h 26mn\nOverall bit rate                 : 1 172 Kbps\n\nVideo\nID                               : 0\nFormat                           : MPEG-4 Visual\nFormat profile                   : Advanced Simple@L5\nFormat settings, BVOP            : 2\nFormat settings, QPel            : No\nFormat settings, GMC             : No warppoints\nFormat settings, Matrix          : Default (H.263)\nCodec ID                         : XVID\nCodec ID/Hint                    : XviD\nDuration                         : 1h 26mn\nBit rate                         : 968 Kbps\nWidth                            : 720 pixels\nHeight                           : 404 pixels\nDisplay aspect ratio             : 16:9\nFrame rate                       : 29.970 fps\nColor space                      : YUV\nChroma subsampling               : 4:2:0\nBit depth                        : 8 bits\nScan type                        : Progressive\nCompression mode                 : Lossy\nBits/(Pixel*Frame)               : 0.111\nStream size                      : 600 MiB (83%)\nWriting library                  : XviD 1.2.1 (UTC 2008-12-04)\n\nAudio\nID                               : 1\nFormat                           : AC-3\nFormat/Info                      : Audio Coding 3\nMode extension                   : CM (complete main)\nCodec ID                         : 2000\nDuration                         : 1h 26mn\nBit rate mode                    : Constant\nBit rate                         : 192 Kbps\nChannel(s)                       : 2 channels\nChannel positions                : Front: L R\nSampling rate                    : 48.0 KHz\nBit depth                        : 16 bits\nCompression mode                 : Lossy\nStream size                      : 119 MiB (16%)\nAlignment                        : Aligned on interleaves\nInterleave, duration             : 33 ms (1.00 video frame)\n\n","torrent":{"xt":"urn:btih:4c5aac6d7d55fc4d52809354202ec0e2e203cfe6","amp;dn":"Sinister.2011.DVDRip.XViD.SeT-++CM8","amp;tr":["udp%3A%2F%2Ftracker.openbittorrent.com%3A80","udp%3A%2F%2Fopen.demonii.com%3A1337","udp%3A%2F%2Ftracker.coppersurfer.tk%3A6969","udp%3A%2F%2Fexodus.desync.com%3A6969"],"infoHash":"4c5aac6d7d55fc4d52809354202ec0e2e203cfe6","infoHashBuffer":{"type":"Buffer","data":[76,90,172,109,125,85,252,77,82,128,147,84,32,46,192,226,226,3,207,230]},"announce":[],"urlList":[]}}